<svg xmlns="http://www.w3.org/2000/svg" viewBox="0 0 24 24" fill="none" aria-hidden="true">
  <path d="M15.7 7.3C16.7 6.1 17.1 4.9 17 3.7C15.5 3.8 14.1 4.6 13.2 5.8C12.4 6.8 11.8 8.1 11.9 9.3C13.4 9.4 14.8 8.5 15.7 7.3Z" fill="#FFFFFF"/>
  <path d="M20.3 16.8C19.9 17.8 19.3 18.8 18.6 19.7C17.6 21 16.5 22.3 14.9 22.3C13.6 22.3 13.2 21.5 11.7 21.5C10.2 21.5 9.7 22.3 8.4 22.3C6.8 22.3 5.8 21.1 4.8 19.8C2.6 16.9 1 12.1 3.3 8.5C4.4 6.8 6.3 5.7 8.1 5.7C9.5 5.7 10.8 6.6 11.7 6.6C12.5 6.6 14.1 5.5 15.8 5.6C16.5 5.6 18.4 5.8 19.7 7.7C19.6 7.8 17.5 9 17.6 11.6C17.6 14.7 20.2 16.6 20.3 16.8Z" fill="#FFFFFF"/>
</svg>
